<?xml version="1.0" encoding="UTF-8"?>
<svg id="_图层_1" data-name="图层_1" xmlns="http://www.w3.org/2000/svg" version="1.1" xmlns:xlink="http://www.w3.org/1999/xlink" viewBox="0 0 3401.57 3401.57">
  <!-- Generator: Adobe Illustrator 30.0.0, SVG Export Plug-In . SVG Version: 2.1.1 Build 123)  -->
  <defs>
    <style>
      .st0 {
        fill: url(#_未命名的渐变_1725);
      }

      .st0, .st1 {
        stroke: #000;
        stroke-linecap: round;
        stroke-linejoin: round;
        stroke-width: .51px;
      }

      .st2 {
        fill: url(#_未命名的渐变_1772);
      }

      .st1 {
        fill: url(#_未命名的渐变_1777);
      }

      .st3 {
        fill: #535b66;
      }

      .st4 {
        fill: url(#_未命名的渐变_1323);
      }

      .st5 {
        fill: url(#_未命名的渐变_1799);
      }
    </style>
    <linearGradient id="_未命名的渐变_1799" data-name="未命名的渐变 1799" x1="181.08" y1="3220.49" x2="3220.49" y2="181.08" gradientUnits="userSpaceOnUse">
      <stop offset="0" stop-color="#000"/>
      <stop offset="1" stop-color="#393942"/>
    </linearGradient>
    <linearGradient id="_未命名的渐变_1777" data-name="未命名的渐变 1777" x1="1490.53" y1="2160.19" x2="2659.56" y2="1485.25" gradientUnits="userSpaceOnUse">
      <stop offset="0" stop-color="#1ee3f9"/>
      <stop offset="0" stop-color="#21e3f9"/>
      <stop offset=".16" stop-color="#5beafa"/>
      <stop offset=".31" stop-color="#8df0fb"/>
      <stop offset=".46" stop-color="#b6f5fd"/>
      <stop offset=".61" stop-color="#d6f9fd"/>
      <stop offset=".75" stop-color="#ecfcfe"/>
      <stop offset=".88" stop-color="#fafefe"/>
      <stop offset="1" stop-color="#fff"/>
    </linearGradient>
    <linearGradient id="_未命名的渐变_1725" data-name="未命名的渐变 1725" x1="1042.62" y1="2702.05" x2="2277.83" y2="562.59" gradientUnits="userSpaceOnUse">
      <stop offset="0" stop-color="#0099fc"/>
      <stop offset=".16" stop-color="#0fb3f8"/>
      <stop offset=".35" stop-color="#1ecdf5"/>
      <stop offset=".55" stop-color="#28dff3"/>
      <stop offset=".76" stop-color="#2eeaf2"/>
      <stop offset="1" stop-color="#31eef2"/>
    </linearGradient>
    <linearGradient id="_未命名的渐变_1323" data-name="未命名的渐变 1323" x1="1060.01" y1="2669.35" x2="2258.21" y2="594.01" gradientUnits="userSpaceOnUse">
      <stop offset="0" stop-color="#0754d0"/>
      <stop offset="1" stop-color="#3ec6ea"/>
    </linearGradient>
    <linearGradient id="_未命名的渐变_1772" data-name="未命名的渐变 1772" x1="1525.51" y1="2439.08" x2="2633.93" y2="1330.66" gradientUnits="userSpaceOnUse">
      <stop offset="0" stop-color="#00caf5"/>
      <stop offset=".09" stop-color="#2bd3f6"/>
      <stop offset=".22" stop-color="#5cdef8"/>
      <stop offset=".34" stop-color="#86e8f9"/>
      <stop offset=".47" stop-color="#a8f0fa"/>
      <stop offset=".59" stop-color="#c3f6fb"/>
      <stop offset=".72" stop-color="#d6fafc"/>
      <stop offset=".86" stop-color="#e1fdfc"/>
      <stop offset="1" stop-color="#e5fefd"/>
    </linearGradient>
  </defs>
  <g>
    <path class="st5" d="M566.93,3380.31c-73.67,0-145.13-14.42-212.39-42.87-64.98-27.48-123.33-66.83-173.45-116.95-50.12-50.12-89.47-108.48-116.95-173.45-28.45-67.26-42.87-138.72-42.87-212.39V566.93c0-73.67,14.42-145.13,42.87-212.39,27.48-64.98,66.83-123.33,116.95-173.45,50.12-50.12,108.48-89.47,173.45-116.95,67.26-28.45,138.72-42.87,212.39-42.87h2267.72c73.67,0,145.13,14.42,212.39,42.87,64.98,27.48,123.33,66.83,173.45,116.95,50.12,50.12,89.47,108.48,116.95,173.45,28.45,67.26,42.87,138.72,42.87,212.39v2267.72c0,73.67-14.42,145.13-42.87,212.39-27.48,64.98-66.83,123.33-116.95,173.45-50.12,50.12-108.48,89.47-173.45,116.95-67.26,28.45-138.72,42.87-212.39,42.87H566.93Z"/>
    <path class="st3" d="M2834.65,42.52c70.81,0,139.49,13.86,204.11,41.19,62.44,26.41,118.53,64.23,166.7,112.4,48.17,48.17,85.99,104.26,112.4,166.7,27.33,64.62,41.19,133.3,41.19,204.11v2267.72c0,70.81-13.86,139.49-41.19,204.11-26.41,62.44-64.23,118.53-112.4,166.7-48.17,48.17-104.26,85.99-166.7,112.4-64.62,27.33-133.3,41.19-204.11,41.19H566.93c-70.81,0-139.49-13.86-204.11-41.19-62.44-26.41-118.53-64.23-166.7-112.4-48.17-48.17-85.99-104.26-112.4-166.7-27.33-64.62-41.19-133.3-41.19-204.11V566.93c0-70.81,13.86-139.49,41.19-204.11,26.41-62.44,64.23-118.53,112.4-166.7,48.17-48.17,104.26-85.99,166.7-112.4,64.62-27.33,133.3-41.19,204.11-41.19h2267.72M2834.65,0H566.93C253.82,0,0,253.82,0,566.93v2267.72C0,3147.75,253.82,3401.57,566.93,3401.57h2267.72c313.11,0,566.93-253.82,566.93-566.93V566.93C3401.57,253.82,3147.75,0,2834.65,0h0Z"/>
  </g>
  <path class="st1" d="M2514.94,2021.7c125.74-276.04,110.34-595.82-41.32-858.51l-495.66,858.51h536.98ZM2404.72,1060.2c-177.7-231.01-452.62-366.39-744.08-366.39l477.8,827.58,266.27-461.2ZM1977.97,3004.46l419.97-327.33v327.33l578.45-450.85-578.45-450.85v327.33l-419.97-327.33v901.69Z"/>
  <path class="st0" d="M1842.09,2854.36c-259.5,38.54-524.53-6.55-756.69-128.72-603.69-317.69-835.53-1064.62-517.84-1668.31C885.26,453.64,1632.19,221.79,2235.88,539.49c603.69,317.69,835.53,1064.62,517.84,1668.31l-119.04-92.78c266.45-537.95,46.37-1190.04-491.58-1456.49-537.95-266.45-1190.04-46.37-1456.49,491.58-266.45,537.95-46.37,1190.04,491.58,1456.49,205.46,101.77,437.84,135.96,663.91,97.69v150.08ZM1325.47,1274.36h-532.54c-111.21,269.4-90.99,575.18,54.74,827.58l477.8-827.58ZM1537,701.99c-288.91,38.39-543.61,208.79-689.34,461.2h955.61l-266.27-461.2ZM1182.84,1743.73l-266.27,461.2c177.7,231.01,452.62,366.39,744.08,366.39l-477.8-827.58ZM1784.29,2563.14c19.36-2.57,38.64-5.75,57.81-9.52v-451.67h-324.08l266.27,461.2Z"/>
  <path class="st4" d="M818.08,1311.41c-88.47,232.11-77.27,490.44,30.96,714.03l412.24-714.03h-443.2ZM1517.49,742.31c-245.25,39.44-463.37,178.3-602.89,383.83h824.49l-221.6-383.83ZM961.24,2201.67c156.78,192.68,386.1,312.14,633.85,330.2l-412.24-714.03-221.6,383.83ZM1805.04,2747.28c-210.11,27.22-423.63-5.5-615.95-94.39-563.51-260.43-809.21-928.38-548.77-1491.89,260.43-563.51,928.38-809.21,1491.89-548.77,563.51,260.43,809.21,928.38,548.77,1491.89l59.92,46.7c286.23-596.61,34.62-1312.29-561.99-1598.51-596.61-286.23-1312.29-34.62-1598.51,561.99-286.23,596.61-34.62,1312.29,561.99,1598.51,205.96,98.81,435.88,136.69,662.66,109.16v-74.69ZM1582.2,2138.99l221.6,383.83,1.24-.2v-383.63h-222.84Z"/>
  <path class="st2" d="M2042.15,1984.64h448.61c101.52-239.37,94.78-510.92-18.51-744.95l-430.1,744.95ZM2138.45,1447.28l221.6-383.83c-156.78-192.68-386.1-312.14-633.85-330.2l412.24,714.03ZM2015.02,2178.63v749.97l481.11-374.98-481.11-374.98ZM2434.99,2601.27v327.33l481.11-374.98-481.11-374.98v327.33"/>
</svg>